<mxfile host="app.diagrams.net" modified="2023-12-27T12:14:15.755Z" agent="Mozilla/5.0 (Windows NT 10.0; Win64; x64) AppleWebKit/537.36 (KHTML, like Gecko) Chrome/120.0.0.0 Safari/537.36" etag="tluQWBJGIPeyUpP62Zhx" version="22.1.12" type="device">
  <diagram name="Page-1" id="YWQw5qrOwP-W0zatedrQ">
    <mxGraphModel dx="1434" dy="938" grid="1" gridSize="10" guides="1" tooltips="1" connect="1" arrows="1" fold="1" page="1" pageScale="1" pageWidth="850" pageHeight="1100" math="0" shadow="0">
      <root>
        <mxCell id="0" />
        <mxCell id="1" parent="0" />
        <mxCell id="t3QVjbhl3cxWiVNiCSv1-1" style="edgeStyle=orthogonalEdgeStyle;rounded=0;orthogonalLoop=1;jettySize=auto;html=1;" edge="1" parent="1" source="t3QVjbhl3cxWiVNiCSv1-2" target="t3QVjbhl3cxWiVNiCSv1-16">
          <mxGeometry relative="1" as="geometry" />
        </mxCell>
        <mxCell id="t3QVjbhl3cxWiVNiCSv1-2" value="Start" style="strokeWidth=2;html=1;shape=mxgraph.flowchart.start_2;whiteSpace=wrap;" vertex="1" parent="1">
          <mxGeometry x="135" y="50" width="70" height="70" as="geometry" />
        </mxCell>
        <mxCell id="t3QVjbhl3cxWiVNiCSv1-3" style="edgeStyle=orthogonalEdgeStyle;rounded=0;orthogonalLoop=1;jettySize=auto;html=1;" edge="1" parent="1" source="t3QVjbhl3cxWiVNiCSv1-7" target="t3QVjbhl3cxWiVNiCSv1-10">
          <mxGeometry relative="1" as="geometry" />
        </mxCell>
        <mxCell id="t3QVjbhl3cxWiVNiCSv1-4" value="Yes" style="edgeLabel;html=1;align=center;verticalAlign=middle;resizable=0;points=[];" vertex="1" connectable="0" parent="t3QVjbhl3cxWiVNiCSv1-3">
          <mxGeometry x="0.1333" y="-4" relative="1" as="geometry">
            <mxPoint as="offset" />
          </mxGeometry>
        </mxCell>
        <mxCell id="t3QVjbhl3cxWiVNiCSv1-5" style="edgeStyle=orthogonalEdgeStyle;rounded=0;orthogonalLoop=1;jettySize=auto;html=1;entryX=0.5;entryY=0;entryDx=0;entryDy=0;" edge="1" parent="1" source="t3QVjbhl3cxWiVNiCSv1-7" target="t3QVjbhl3cxWiVNiCSv1-12">
          <mxGeometry relative="1" as="geometry" />
        </mxCell>
        <mxCell id="t3QVjbhl3cxWiVNiCSv1-6" value="No" style="edgeLabel;html=1;align=center;verticalAlign=middle;resizable=0;points=[];" vertex="1" connectable="0" parent="t3QVjbhl3cxWiVNiCSv1-5">
          <mxGeometry x="-0.0111" y="-3" relative="1" as="geometry">
            <mxPoint as="offset" />
          </mxGeometry>
        </mxCell>
        <mxCell id="t3QVjbhl3cxWiVNiCSv1-7" value="If Plus&lt;br&gt;" style="rounded=1;whiteSpace=wrap;html=1;absoluteArcSize=1;arcSize=14;strokeWidth=2;" vertex="1" parent="1">
          <mxGeometry x="80" y="470" width="180" height="50" as="geometry" />
        </mxCell>
        <mxCell id="t3QVjbhl3cxWiVNiCSv1-8" style="edgeStyle=orthogonalEdgeStyle;rounded=0;orthogonalLoop=1;jettySize=auto;html=1;" edge="1" parent="1" source="t3QVjbhl3cxWiVNiCSv1-10" target="t3QVjbhl3cxWiVNiCSv1-24">
          <mxGeometry relative="1" as="geometry" />
        </mxCell>
        <mxCell id="t3QVjbhl3cxWiVNiCSv1-9" value="Membership Payments&lt;br&gt;" style="edgeLabel;html=1;align=center;verticalAlign=middle;resizable=0;points=[];" vertex="1" connectable="0" parent="t3QVjbhl3cxWiVNiCSv1-8">
          <mxGeometry x="0.3438" y="-3" relative="1" as="geometry">
            <mxPoint as="offset" />
          </mxGeometry>
        </mxCell>
        <mxCell id="t3QVjbhl3cxWiVNiCSv1-10" value="Charge membership Fee all PPs" style="rounded=1;whiteSpace=wrap;html=1;absoluteArcSize=1;arcSize=14;strokeWidth=2;" vertex="1" parent="1">
          <mxGeometry x="320" y="470" width="240" height="50" as="geometry" />
        </mxCell>
        <mxCell id="t3QVjbhl3cxWiVNiCSv1-11" style="edgeStyle=orthogonalEdgeStyle;rounded=0;orthogonalLoop=1;jettySize=auto;html=1;" edge="1" parent="1" source="t3QVjbhl3cxWiVNiCSv1-12" target="t3QVjbhl3cxWiVNiCSv1-28">
          <mxGeometry relative="1" as="geometry" />
        </mxCell>
        <mxCell id="t3QVjbhl3cxWiVNiCSv1-12" value="Charge Service fee to Primary PP" style="rounded=1;whiteSpace=wrap;html=1;absoluteArcSize=1;arcSize=14;strokeWidth=2;" vertex="1" parent="1">
          <mxGeometry x="80" y="700" width="180" height="50" as="geometry" />
        </mxCell>
        <mxCell id="t3QVjbhl3cxWiVNiCSv1-13" value="" style="html=1;verticalAlign=bottom;endArrow=block;curved=0;rounded=0;exitX=0.463;exitY=1.02;exitDx=0;exitDy=0;exitPerimeter=0;entryX=1;entryY=0;entryDx=0;entryDy=0;" edge="1" parent="1" source="t3QVjbhl3cxWiVNiCSv1-10" target="t3QVjbhl3cxWiVNiCSv1-12">
          <mxGeometry width="80" relative="1" as="geometry">
            <mxPoint x="440" y="610" as="sourcePoint" />
            <mxPoint x="270" y="700" as="targetPoint" />
            <Array as="points">
              <mxPoint x="430" y="700" />
            </Array>
          </mxGeometry>
        </mxCell>
        <mxCell id="t3QVjbhl3cxWiVNiCSv1-14" style="edgeStyle=orthogonalEdgeStyle;rounded=0;orthogonalLoop=1;jettySize=auto;html=1;" edge="1" parent="1" source="t3QVjbhl3cxWiVNiCSv1-16" target="t3QVjbhl3cxWiVNiCSv1-22">
          <mxGeometry relative="1" as="geometry" />
        </mxCell>
        <mxCell id="t3QVjbhl3cxWiVNiCSv1-15" value="No" style="edgeLabel;html=1;align=center;verticalAlign=middle;resizable=0;points=[];" vertex="1" connectable="0" parent="t3QVjbhl3cxWiVNiCSv1-14">
          <mxGeometry x="-0.1636" relative="1" as="geometry">
            <mxPoint as="offset" />
          </mxGeometry>
        </mxCell>
        <mxCell id="t3QVjbhl3cxWiVNiCSv1-16" value="If Add CC" style="rounded=1;whiteSpace=wrap;html=1;absoluteArcSize=1;arcSize=14;strokeWidth=2;" vertex="1" parent="1">
          <mxGeometry x="80" y="190" width="180" height="50" as="geometry" />
        </mxCell>
        <mxCell id="t3QVjbhl3cxWiVNiCSv1-17" style="edgeStyle=orthogonalEdgeStyle;rounded=0;orthogonalLoop=1;jettySize=auto;html=1;exitX=0.5;exitY=1;exitDx=0;exitDy=0;entryX=1;entryY=0.5;entryDx=0;entryDy=0;" edge="1" parent="1" source="t3QVjbhl3cxWiVNiCSv1-18" target="t3QVjbhl3cxWiVNiCSv1-22">
          <mxGeometry relative="1" as="geometry" />
        </mxCell>
        <mxCell id="t3QVjbhl3cxWiVNiCSv1-18" value="Add CC" style="rounded=1;whiteSpace=wrap;html=1;absoluteArcSize=1;arcSize=14;strokeWidth=2;" vertex="1" parent="1">
          <mxGeometry x="380" y="190" width="180" height="50" as="geometry" />
        </mxCell>
        <mxCell id="t3QVjbhl3cxWiVNiCSv1-19" style="edgeStyle=orthogonalEdgeStyle;rounded=0;orthogonalLoop=1;jettySize=auto;html=1;entryX=0;entryY=0.5;entryDx=0;entryDy=0;exitX=1;exitY=0.5;exitDx=0;exitDy=0;" edge="1" parent="1" source="t3QVjbhl3cxWiVNiCSv1-16" target="t3QVjbhl3cxWiVNiCSv1-18">
          <mxGeometry relative="1" as="geometry">
            <mxPoint x="310" y="230" as="sourcePoint" />
            <mxPoint x="330" y="505" as="targetPoint" />
          </mxGeometry>
        </mxCell>
        <mxCell id="t3QVjbhl3cxWiVNiCSv1-20" value="Yes" style="edgeLabel;html=1;align=center;verticalAlign=middle;resizable=0;points=[];" vertex="1" connectable="0" parent="t3QVjbhl3cxWiVNiCSv1-19">
          <mxGeometry x="0.1333" y="-4" relative="1" as="geometry">
            <mxPoint as="offset" />
          </mxGeometry>
        </mxCell>
        <mxCell id="t3QVjbhl3cxWiVNiCSv1-21" style="edgeStyle=orthogonalEdgeStyle;rounded=0;orthogonalLoop=1;jettySize=auto;html=1;entryX=0.5;entryY=0;entryDx=0;entryDy=0;" edge="1" parent="1" source="t3QVjbhl3cxWiVNiCSv1-22" target="t3QVjbhl3cxWiVNiCSv1-7">
          <mxGeometry relative="1" as="geometry" />
        </mxCell>
        <mxCell id="t3QVjbhl3cxWiVNiCSv1-22" value="Select Primary CC" style="rounded=1;whiteSpace=wrap;html=1;absoluteArcSize=1;arcSize=14;strokeWidth=2;" vertex="1" parent="1">
          <mxGeometry x="80" y="350" width="180" height="50" as="geometry" />
        </mxCell>
        <mxCell id="t3QVjbhl3cxWiVNiCSv1-23" value="" style="edgeStyle=orthogonalEdgeStyle;rounded=0;orthogonalLoop=1;jettySize=auto;html=1;" edge="1" parent="1" source="t3QVjbhl3cxWiVNiCSv1-24" target="t3QVjbhl3cxWiVNiCSv1-30">
          <mxGeometry relative="1" as="geometry" />
        </mxCell>
        <mxCell id="t3QVjbhl3cxWiVNiCSv1-24" value="" style="strokeWidth=2;html=1;shape=mxgraph.flowchart.database;whiteSpace=wrap;" vertex="1" parent="1">
          <mxGeometry x="650" y="695" width="60" height="60" as="geometry" />
        </mxCell>
        <mxCell id="t3QVjbhl3cxWiVNiCSv1-25" style="edgeStyle=orthogonalEdgeStyle;rounded=0;orthogonalLoop=1;jettySize=auto;html=1;entryX=0;entryY=0.5;entryDx=0;entryDy=0;entryPerimeter=0;" edge="1" parent="1" source="t3QVjbhl3cxWiVNiCSv1-12" target="t3QVjbhl3cxWiVNiCSv1-24">
          <mxGeometry relative="1" as="geometry" />
        </mxCell>
        <mxCell id="t3QVjbhl3cxWiVNiCSv1-26" value="Fees Charged" style="edgeLabel;html=1;align=center;verticalAlign=middle;resizable=0;points=[];" vertex="1" connectable="0" parent="t3QVjbhl3cxWiVNiCSv1-25">
          <mxGeometry x="0.2359" y="1" relative="1" as="geometry">
            <mxPoint as="offset" />
          </mxGeometry>
        </mxCell>
        <mxCell id="t3QVjbhl3cxWiVNiCSv1-27" value="" style="edgeStyle=orthogonalEdgeStyle;rounded=0;orthogonalLoop=1;jettySize=auto;html=1;" edge="1" parent="1" source="t3QVjbhl3cxWiVNiCSv1-28" target="t3QVjbhl3cxWiVNiCSv1-31">
          <mxGeometry relative="1" as="geometry" />
        </mxCell>
        <mxCell id="t3QVjbhl3cxWiVNiCSv1-28" value="Display Incured Charges" style="rounded=1;whiteSpace=wrap;html=1;absoluteArcSize=1;arcSize=14;strokeWidth=2;" vertex="1" parent="1">
          <mxGeometry x="80" y="850" width="180" height="50" as="geometry" />
        </mxCell>
        <mxCell id="t3QVjbhl3cxWiVNiCSv1-29" style="edgeStyle=orthogonalEdgeStyle;rounded=0;orthogonalLoop=1;jettySize=auto;html=1;exitX=0;exitY=0.5;exitDx=0;exitDy=0;entryX=1;entryY=0.5;entryDx=0;entryDy=0;" edge="1" parent="1" source="t3QVjbhl3cxWiVNiCSv1-30" target="t3QVjbhl3cxWiVNiCSv1-28">
          <mxGeometry relative="1" as="geometry" />
        </mxCell>
        <mxCell id="t3QVjbhl3cxWiVNiCSv1-30" value="Charges Incured" style="whiteSpace=wrap;html=1;strokeWidth=2;" vertex="1" parent="1">
          <mxGeometry x="620" y="845" width="120" height="60" as="geometry" />
        </mxCell>
        <mxCell id="t3QVjbhl3cxWiVNiCSv1-31" value="End" style="ellipse;whiteSpace=wrap;html=1;rounded=1;arcSize=14;strokeWidth=2;" vertex="1" parent="1">
          <mxGeometry x="130" y="965" width="80" height="80" as="geometry" />
        </mxCell>
      </root>
    </mxGraphModel>
  </diagram>
</mxfile>
